<svg width="3000" height="1000" viewBox="0 0 3000 1000" fill="none" xmlns="http://www.w3.org/2000/svg">
<rect width="3000" height="1000" rx="120" fill="#32437F" fill-opacity="0.988235"/>
<path d="M1706.04 579.396L1699.33 582.205C1690.02 586.208 1680.42 587.922 1670.54 587.347L1657.11 585.377C1654.93 584.47 1653.16 583.035 1651.83 581.074C1651.65 580.798 1651.49 580.811 1651.36 581.11C1651.29 581.281 1651.32 581.459 1651.45 581.645C1652.8 583.615 1654.48 585.017 1656.48 585.852L1669.94 587.845C1670.31 589.012 1670.5 590.033 1670.5 590.909C1670.47 611.138 1670.47 631.378 1670.5 651.631C1670.5 652.069 1670.72 652.26 1671.16 652.203C1681.37 650.926 1684.44 644.192 1684.42 634.551C1684.4 619.299 1684.51 604.046 1684.73 588.793C1684.74 587.87 1685.19 587.27 1686.08 586.994L1699.76 582.812L1706.04 579.846L1706.35 580.272C1706.54 580.531 1706.64 580.823 1706.64 581.147C1706.66 599.495 1706.63 617.836 1706.53 636.168C1706.42 658.111 1692.15 673.586 1670.38 674.182C1670.11 674.189 1669.84 674.29 1669.64 674.467C1669.43 674.644 1669.29 674.887 1669.25 675.155C1659.63 730.735 1624.63 778.183 1572.95 801.852L1558.6 807.468C1525.54 819.917 1487.95 819.941 1454.15 810.604C1452.87 810.252 1451.71 809.547 1450.46 809.024C1444.77 807.087 1439.17 804.907 1433.66 802.484C1433.31 801.981 1432.86 801.795 1432.32 801.925C1431.85 802.038 1431.84 802.204 1432.28 802.423C1437.93 805.268 1443.79 807.569 1449.84 809.328L1451.23 810.337C1451.52 810.556 1451.67 810.848 1451.67 811.212V842.309C1451.67 842.82 1451.85 843.213 1452.23 843.488L1501.06 879.411C1501.36 879.63 1501.65 879.63 1501.95 879.411L1551.46 842.771C1551.72 842.577 1551.85 842.317 1551.86 841.993L1552.3 811.492C1552.3 811.03 1552.51 810.706 1552.94 810.519L1558.99 807.906L1572.9 802.35C1573.15 802.391 1573.38 802.484 1573.61 802.63C1573.97 802.857 1574.14 803.185 1574.14 803.614V834.444C1574.14 834.85 1574.25 835.248 1574.46 835.599C1580.24 845.64 1589.38 863.048 1599.99 865.553C1608.7 867.611 1617.34 869.925 1625.9 872.494C1626.08 872.549 1626.27 872.554 1626.46 872.506C1626.64 872.459 1626.81 872.363 1626.94 872.227C1631.79 867.315 1634.66 862.623 1642.56 866.185C1656.79 872.604 1672.91 880.976 1690.95 891.301C1697.55 895.081 1698.76 902.424 1692.64 907.578C1692.47 907.721 1692.33 907.899 1692.24 908.099C1692.15 908.299 1692.1 908.516 1692.1 908.737C1692.1 908.957 1692.14 909.175 1692.23 909.376C1692.32 909.577 1692.46 909.756 1692.62 909.9C1719.66 933.132 1737.99 963.037 1741.88 998.96C1741.92 999.382 1741.73 999.592 1741.31 999.592L1722.8 999.422C1719.69 975.919 1710.23 955.456 1694.41 938.031C1689.89 933.055 1685.07 928.31 1679.97 923.796C1679.7 923.561 1679.45 923.577 1679.2 923.844L1648.87 958.381C1648.54 958.762 1648.53 959.155 1648.84 959.561C1652.22 963.953 1654.97 968.727 1657.08 973.881C1658.12 976.434 1657.66 978.768 1658.27 981.37C1658.81 983.712 1659.1 985.572 1659.13 986.95C1659.25 991.18 1659.62 995.431 1660.26 999.702L1642.25 999.714C1642.13 992.845 1642.42 985.904 1640.02 979.631C1637.87 973.982 1635.01 969.48 1631.44 966.125C1623.93 960.185 1616.78 957.186 1610.01 957.129C1584.11 956.935 1523.44 956.983 1427.97 957.275C1417.29 957.312 1402.25 956.922 1389.39 957.178C1381.09 957.34 1374.9 958.163 1370.82 959.646C1351.45 966.709 1350.43 981.455 1345.89 999.568L1327.63 999.617C1328.04 998.831 1328.28 998.263 1328.35 997.915C1331.33 982.938 1333.97 968.411 1344.7 956.667C1345.02 956.327 1345.02 955.982 1344.7 955.634L1319.94 928.682C1319.56 928.261 1319.15 928.241 1318.73 928.622C1301.81 943.882 1290.09 962.19 1283.58 983.546C1281.85 989.211 1281.09 994.677 1281.29 999.945L1262.37 999.605C1261.97 999.605 1261.79 999.398 1261.83 998.985C1265.22 966.125 1281.36 937.8 1305.32 915.225C1306.03 914.56 1306.01 913.908 1305.28 913.268C1300.74 909.305 1297.28 903.129 1301.57 897.707C1302.52 896.5 1304.54 895.069 1307.65 893.416C1330.51 881.223 1348.84 871.23 1362.44 867.109C1369.49 864.969 1371.4 869.017 1375.88 872.908C1376.21 873.191 1376.59 873.264 1377 873.126C1385.36 870.33 1393.84 867.984 1402.43 866.088C1408.02 864.848 1411.43 861.991 1414.43 857.566C1418.05 852.241 1422.93 844.761 1429.05 835.125C1429.33 834.688 1429.48 834.186 1429.48 833.678V802.156C1429.48 801.613 1429.24 801.215 1428.76 800.964C1377.03 774.511 1345.6 732.559 1334.46 675.106C1334.38 674.693 1334.13 674.466 1333.71 674.425C1310.05 672.395 1298.43 657.236 1298.47 634.649C1298.49 617.289 1298.51 599.84 1298.52 582.302C1305.69 585.422 1312.96 587.205 1320.34 587.651C1320.56 588.186 1320.68 588.558 1320.68 588.769C1320.67 604.565 1320.67 620.36 1320.69 636.156C1320.69 644.629 1323.43 650.513 1332.19 651.826C1332.31 651.843 1332.43 651.835 1332.55 651.802C1332.66 651.768 1332.77 651.71 1332.86 651.632C1332.95 651.553 1333.02 651.456 1333.07 651.347C1333.12 651.238 1333.15 651.119 1333.15 650.999L1333.19 587.31C1339.89 587.019 1349.38 585.694 1353.17 579.822C1353.21 579.765 1353.22 579.708 1353.2 579.652C1353.16 579.538 1353.12 579.429 1353.09 579.323C1353.08 579.296 1353.06 579.271 1353.04 579.252C1353.02 579.233 1352.99 579.22 1352.96 579.215C1352.93 579.21 1352.91 579.213 1352.88 579.223C1352.86 579.234 1352.84 579.252 1352.82 579.275C1348.5 585.219 1340.4 586.034 1333.67 586.861L1321.94 587.006C1314.45 586.715 1307.27 585.126 1300.42 582.241C1299.88 582.014 1299.24 581.97 1298.5 582.107C1257.67 563.459 1245.35 515.002 1271.33 478.399C1271.52 478.147 1271.52 477.896 1271.33 477.645C1241.6 437.2 1256.34 382.458 1302.28 362.387C1302.67 362.217 1302.93 361.929 1303.05 361.524C1304.4 357.087 1305.03 351.677 1306.08 348.03C1317.44 308.752 1354.47 288.061 1394.53 295.197C1394.7 295.229 1394.88 295.206 1395.05 295.129C1395.21 295.053 1395.34 294.928 1395.43 294.772C1412.29 265.036 1444.52 244.832 1478.48 244.528C1497.29 244.358 1512.49 243.811 1527.66 245.014C1559.89 247.543 1587.69 267.456 1603.88 294.881C1603.97 295.031 1604.1 295.149 1604.26 295.221C1604.42 295.293 1604.6 295.314 1604.77 295.282C1650.03 286.724 1689.97 315.414 1695.48 361.062C1695.53 361.467 1695.74 361.755 1696.11 361.925C1722.66 373.936 1738.08 393.65 1742.39 421.068C1745.59 441.43 1739.96 461.087 1727.76 477.463C1727.51 477.787 1727.51 478.115 1727.74 478.447C1752.71 512.899 1742.76 558.268 1706.04 579.396ZM1539.97 481.742C1542.61 472.831 1545.22 469.232 1555.31 470.399C1561.81 471.153 1563 473.366 1564.67 479.675C1575.94 522.211 1633.29 525.652 1649.64 484.915C1650.89 481.77 1652.12 479.655 1653.32 478.569C1657.9 474.399 1666.67 475.846 1669.28 481.985C1669.87 483.379 1670.17 485.397 1670.17 488.039C1670.15 514.265 1670.18 540.572 1670.26 566.96C1670.26 567.398 1670.47 567.608 1670.91 567.592C1691.2 567.049 1705.85 558.815 1714.86 542.89C1725.81 523.536 1721.86 500.888 1706.52 485.012C1702.2 480.538 1702.14 476.381 1706.31 471.506C1717.87 458 1724.51 444.117 1722.38 425.736C1720.28 407.614 1711.17 393.796 1695.04 384.281C1687.48 379.82 1676.01 379.771 1675.51 369.037C1674.45 346.077 1664.53 329.738 1645.77 320.021C1630.73 312.241 1616.66 312.739 1600.61 317.383C1595.03 319 1591.53 315.45 1589.04 310.527C1574.46 281.715 1549.62 265.62 1517.02 264.708C1502.85 264.319 1489.81 264.408 1477.9 264.976C1447.48 266.41 1422.26 284.293 1409.45 311.73C1407.1 316.751 1402.53 318.599 1397.34 317.018C1359.76 305.543 1323.88 329.807 1323.5 369.487C1323.44 376.684 1318.76 378.142 1312.31 380.513C1281.35 391.867 1267.4 426.878 1282.02 456.31C1284.99 462.279 1290.06 468.442 1294.49 473.84C1295.49 475.06 1296.04 476.592 1296.03 478.17C1296.02 479.748 1295.46 481.274 1294.44 482.483C1290.47 487.224 1285.85 492.525 1283.19 497.898C1266.62 531.329 1290.8 566.79 1327.04 567.471C1328.92 567.511 1330.79 567.13 1332.63 566.328C1332.8 566.252 1332.94 566.128 1333.04 565.971C1333.15 565.813 1333.2 565.629 1333.2 565.44C1333.02 546.136 1333.08 526.831 1333.38 507.526C1333.5 500.159 1338.32 491.601 1347.11 495.138C1351.41 496.865 1354.4 501.338 1356.84 503.32C1380.16 522.114 1414.45 514.589 1426.05 486.471C1430.71 475.153 1430.95 467.616 1446.6 470.412C1452.14 471.396 1453.61 476.405 1455.12 481.547C1467.46 523.792 1527.28 524.716 1539.97 481.742ZM1415.2 526.721L1410.84 528.715C1410.78 528.743 1410.74 528.793 1410.72 528.854C1410.69 528.916 1410.7 528.984 1410.72 529.043C1410.75 529.103 1410.8 529.149 1410.86 529.172C1410.92 529.195 1410.99 529.192 1411.05 529.165L1415.59 527.171C1421.44 524.092 1426.72 520.242 1431.41 515.622C1434.4 512.68 1442.06 514.224 1447.64 514.407C1449.39 514.463 1450.93 515.047 1452.26 516.157L1456.03 519.148C1456.09 519.188 1456.15 519.196 1456.21 519.172C1456.32 519.14 1456.42 519.107 1456.53 519.075C1456.54 519.068 1456.56 519.058 1456.56 519.045C1456.57 519.032 1456.58 519.018 1456.58 519.002C1456.58 518.987 1456.58 518.971 1456.58 518.956C1456.57 518.941 1456.56 518.928 1456.55 518.917L1452.49 515.61C1448.54 511.761 1445.03 507.465 1441.97 502.724C1441.71 502.335 1441.46 502.331 1441.21 502.712C1434.47 512.77 1425.8 520.773 1415.2 526.721ZM1537.55 519.938C1516.64 536.313 1487.41 538.234 1464.52 524.545L1458.66 520.777C1458.53 520.688 1458.44 520.72 1458.39 520.874C1458.34 521.012 1458.36 521.117 1458.46 521.19C1460.27 522.576 1462.14 523.865 1464.08 525.056C1482.25 535.73 1503.17 537.042 1523.05 529.748C1526.28 528.565 1531.27 525.494 1538.04 520.534C1543.3 516.644 1548.59 516.109 1557.13 514.346C1558.25 514.111 1559.54 514.2 1560.99 514.613C1566.09 519.152 1571.51 523.2 1577.26 526.758C1577.32 526.798 1577.39 526.807 1577.45 526.782C1577.57 526.742 1577.69 526.701 1577.82 526.661C1577.84 526.653 1577.85 526.641 1577.87 526.624C1577.88 526.607 1577.89 526.586 1577.89 526.564C1577.89 526.542 1577.89 526.519 1577.88 526.498C1577.87 526.476 1577.86 526.457 1577.84 526.442L1561.44 514.212L1553.11 503.879C1552.9 503.62 1552.7 503.628 1552.51 503.903C1548.31 510.055 1543.32 515.399 1537.55 519.938ZM1638.47 526.332L1627.51 530.672C1627.43 530.7 1627.35 530.761 1627.31 530.842C1627.27 530.922 1627.26 531.017 1627.29 531.104C1627.32 531.191 1627.38 531.264 1627.46 531.306C1627.54 531.348 1627.63 531.356 1627.72 531.329C1631.33 530.49 1635.23 528.606 1638.64 526.952C1642.49 529.019 1642.76 533.201 1648.3 531.487C1648.66 531.373 1648.84 531.13 1648.85 530.757L1649.04 520.072C1649.05 519.723 1648.91 519.642 1648.62 519.829L1638.47 526.332ZM1355.31 583.299C1355.34 605.602 1355.34 627.922 1355.3 650.258C1355.14 725.568 1414.16 787.142 1487.87 794.631C1570.51 803.043 1648.5 736.996 1648.35 652.884C1648.32 631.707 1648.3 610.534 1648.29 589.365C1648.65 588.295 1648.72 587.387 1648.5 586.642C1648.36 586.196 1648.17 586.172 1647.92 586.569C1647.53 587.209 1647.48 588.092 1647.78 589.219C1640.08 626.09 1607.24 635.828 1574.04 629.64C1542.49 623.768 1527.68 598.555 1520.49 569.343C1520.36 568.857 1520.06 568.654 1519.56 568.735C1508.38 570.583 1497.18 570.591 1485.98 568.759C1485.73 568.715 1485.48 568.768 1485.26 568.908C1485.05 569.048 1484.89 569.264 1484.83 569.513C1477.13 599.905 1462.39 624.242 1429.21 630.065C1420.91 631.524 1412.22 631.682 1403.12 630.54C1375.83 627.099 1360.04 610.299 1355.91 583.286C1353.89 570.85 1354.18 556.578 1354.46 536.191C1354.49 534.571 1354.6 533.201 1354.8 532.083C1354.89 531.645 1355.15 531.475 1355.59 531.572C1357.97 532.091 1360.43 531.941 1362.96 531.122L1377.04 534.392C1370.09 539.936 1366.53 547.522 1366.35 557.15C1365.79 586.739 1372.49 614.93 1407.03 618.346C1425.6 620.182 1446.49 615.417 1457.68 599.929C1466.84 587.237 1492.09 531.365 1457.14 530.782C1439.23 530.482 1424.75 530.429 1413.68 530.624C1412.17 530.648 1410.9 530.51 1409.87 530.21C1409.47 530.097 1409.07 530.101 1408.67 530.223C1398.61 533.302 1388.33 534.429 1377.83 533.602L1365.34 530.83L1354.83 526.43C1354.48 526.284 1354.28 526.401 1354.24 526.782C1352.61 542.015 1353.82 558.9 1353.79 574.327C1353.79 577.439 1354.87 580.162 1355.31 583.299ZM1581.96 528.915C1582.02 528.826 1581.9 528.642 1581.64 528.405C1581.38 528.168 1581 527.897 1580.58 527.65C1580.16 527.404 1579.73 527.203 1579.4 527.092C1579.07 526.98 1578.85 526.968 1578.8 527.057C1578.75 527.146 1578.86 527.329 1579.12 527.566C1579.38 527.803 1579.76 528.075 1580.18 528.321C1580.6 528.568 1581.03 528.768 1581.36 528.88C1581.7 528.991 1581.91 529.004 1581.96 528.915ZM1545.44 596.562C1556.29 613.909 1574.22 619.1 1593.57 618.638C1615.27 618.14 1629.62 609.01 1635.54 587.213C1639.16 573.857 1640.07 561.607 1638.28 550.463C1637 542.521 1632.36 536.508 1624.34 532.423C1624.02 532.269 1623.7 532.224 1623.36 532.289C1611.45 534.818 1600.43 533.894 1588.78 531.353C1577.51 528.897 1562.28 530.356 1550.6 530.587C1513.79 531.317 1535.51 580.673 1545.44 596.562ZM1517.76 538.051L1487.52 538.149C1487.43 538.149 1487.35 538.183 1487.28 538.245C1487.22 538.306 1487.19 538.39 1487.19 538.477L1487.22 548.458C1487.24 551.619 1487.44 554.651 1487.79 556.889C1488.15 559.127 1488.62 560.388 1489.11 560.395L1516.32 560.298C1516.56 560.302 1516.8 559.996 1517.02 559.397C1517.24 558.799 1517.44 557.92 1517.61 556.811C1517.78 555.702 1517.91 554.385 1518 552.935C1518.09 551.485 1518.13 549.93 1518.13 548.36L1518.09 538.38C1518.09 538.293 1518.06 538.209 1517.99 538.148C1517.93 538.086 1517.85 538.051 1517.76 538.051ZM1564.12 853.202C1547.52 865.593 1530.84 877.884 1514.09 890.073C1513.38 890.6 1513.31 891.195 1513.9 891.86L1531.21 911.687C1531.41 911.919 1531.7 912.062 1532.01 912.087C1532.32 912.112 1532.62 912.017 1532.86 911.821L1578.78 873.698C1578.96 873.55 1579.08 873.34 1579.11 873.109C1579.15 872.878 1579.1 872.642 1578.97 872.446L1565.99 852.156C1565.75 851.791 1565.47 851.747 1565.14 852.022C1565.02 852.111 1564.91 852.221 1564.81 852.351C1564.64 852.571 1564.48 852.773 1564.36 852.926C1564.23 853.08 1564.15 853.176 1564.12 853.202ZM1423.47 872.822C1423.42 872.91 1423.4 873.015 1423.41 873.118C1423.43 873.221 1423.48 873.315 1423.56 873.382L1470.67 912.32C1470.75 912.388 1470.86 912.421 1470.97 912.412C1471.08 912.403 1471.18 912.352 1471.25 912.271L1489.45 891.264C1489.49 891.22 1489.52 891.169 1489.54 891.113C1489.55 891.058 1489.56 890.999 1489.55 890.941C1489.55 890.883 1489.53 890.826 1489.5 890.775C1489.47 890.724 1489.43 890.68 1489.39 890.644L1437.58 852.363C1437.53 852.329 1437.48 852.304 1437.42 852.291C1437.36 852.278 1437.31 852.277 1437.25 852.287C1437.19 852.297 1437.14 852.319 1437.09 852.351C1437.04 852.382 1437 852.424 1436.97 852.472L1423.47 872.822ZM1537.64 928.5C1533.58 931.904 1529.06 933.436 1525 928.792C1517.17 919.836 1509.37 910.922 1501.62 902.047C1501.38 901.78 1501.15 901.788 1500.93 902.071C1494.2 910.322 1487.24 918.374 1480.04 926.227C1477.98 928.472 1475.83 930.356 1473.57 931.88C1473.21 932.128 1472.78 932.268 1472.34 932.285C1471.9 932.303 1471.47 932.196 1471.09 931.977C1467.46 929.902 1463.93 927.438 1460.5 924.586C1444.72 911.456 1428.27 897.881 1411.16 883.861C1410.88 883.631 1410.55 883.471 1410.2 883.393C1409.85 883.314 1409.49 883.321 1409.14 883.411L1391.38 887.982C1390.22 888.274 1390.04 888.865 1390.85 889.757L1434.25 938.177C1434.7 938.686 1435.26 939.092 1435.88 939.371C1436.5 939.65 1437.18 939.794 1437.86 939.794H1564.44C1564.85 939.793 1565.24 939.71 1565.61 939.549C1565.97 939.387 1566.3 939.152 1566.56 938.858L1611.79 888.614C1611.86 888.544 1611.9 888.459 1611.92 888.367C1611.95 888.275 1611.94 888.179 1611.92 888.088C1611.89 887.998 1611.84 887.916 1611.77 887.85C1611.7 887.785 1611.62 887.738 1611.53 887.714L1593.58 882.888C1593.22 882.791 1592.89 882.864 1592.61 883.107C1569.22 902.242 1550.9 917.373 1537.64 928.5ZM1619.27 941.228C1624.12 942.63 1628.86 944.365 1633.49 946.431C1633.94 946.626 1634.32 946.537 1634.64 946.164L1671.53 903.178C1671.89 902.764 1671.83 902.432 1671.35 902.181L1640.9 886.146C1640.4 885.887 1639.97 885.96 1639.6 886.365L1591.78 939.137C1591.39 939.575 1591.48 939.794 1592.08 939.794C1600.91 939.782 1610.82 938.773 1619.27 941.228ZM1409.99 939.125C1408.89 938.258 1408.01 937.452 1407.34 936.706C1392.67 920.294 1377.93 903.915 1363.12 887.569C1362.81 887.236 1362.45 887.171 1362.05 887.374L1325.29 905.548C1325.19 905.597 1325.1 905.666 1325.04 905.752C1324.97 905.838 1324.93 905.937 1324.91 906.042C1324.89 906.147 1324.89 906.255 1324.92 906.357C1324.95 906.459 1325.01 906.553 1325.08 906.63L1361.09 944.79C1361.29 945.009 1361.52 945.033 1361.77 944.863C1372.82 937.338 1396.89 939.806 1409.76 939.794C1410.48 939.794 1410.56 939.571 1409.99 939.125Z" fill="black"/>
<path d="M1555.31 470.4C1545.22 469.233 1542.61 472.831 1539.97 481.742C1527.28 524.716 1467.46 523.792 1455.12 481.547C1453.61 476.405 1452.14 471.397 1446.6 470.412C1430.95 467.616 1430.71 475.153 1426.05 486.471C1414.45 514.589 1380.16 522.114 1356.84 503.32C1354.4 501.339 1351.41 496.865 1347.11 495.139C1338.32 491.601 1333.5 500.159 1333.38 507.526C1333.08 526.831 1333.02 546.136 1333.2 565.441C1333.2 565.629 1333.15 565.814 1333.04 565.971C1332.94 566.129 1332.8 566.253 1332.63 566.328C1330.79 567.131 1328.92 567.512 1327.04 567.471C1290.8 566.79 1266.62 531.329 1283.19 497.898C1285.85 492.525 1290.47 487.225 1294.44 482.484C1295.46 481.274 1296.02 479.749 1296.03 478.171C1296.04 476.592 1295.49 475.061 1294.49 473.84C1290.06 468.443 1284.99 462.279 1282.02 456.31C1267.39 426.879 1281.35 391.868 1312.31 380.513C1318.76 378.143 1323.44 376.684 1323.5 369.487C1323.88 329.808 1359.76 305.543 1397.34 317.019C1402.53 318.599 1407.1 316.751 1409.45 311.731C1422.26 284.293 1447.48 266.41 1477.9 264.976C1489.81 264.409 1502.85 264.32 1517.02 264.709C1549.62 265.62 1574.46 281.716 1589.04 310.527C1591.53 315.451 1595.03 319 1600.61 317.384C1616.66 312.74 1630.73 312.241 1645.77 320.022C1664.53 329.739 1674.45 346.077 1675.51 369.037C1676.01 379.772 1687.48 379.82 1695.04 384.282C1711.17 393.796 1720.28 407.615 1722.38 425.736C1724.51 444.117 1717.87 458 1706.31 471.506C1702.14 476.381 1702.2 480.538 1706.52 485.012C1721.86 500.889 1725.81 523.537 1714.86 542.89C1705.85 558.815 1691.2 567.05 1670.91 567.593C1670.47 567.609 1670.26 567.398 1670.26 566.96C1670.18 540.572 1670.15 514.265 1670.17 488.039C1670.17 485.397 1669.87 483.379 1669.28 481.985C1666.67 475.846 1657.9 474.399 1653.32 478.569C1652.12 479.655 1650.89 481.77 1649.64 484.915C1633.29 525.652 1575.94 522.212 1564.67 479.675C1563 473.366 1561.81 471.154 1555.31 470.4Z" fill="#23292E"/>
<path d="M1452.49 515.61C1452.67 515.902 1452.59 516.084 1452.26 516.157C1450.93 515.047 1449.39 514.463 1447.64 514.407C1442.06 514.224 1434.4 512.68 1431.41 515.622C1426.72 520.242 1421.44 524.091 1415.59 527.171C1415.49 526.887 1415.36 526.738 1415.2 526.721C1425.8 520.773 1434.47 512.77 1441.21 502.712C1441.46 502.331 1441.71 502.335 1441.97 502.724C1445.03 507.465 1448.54 511.761 1452.49 515.61Z" fill="#FFE7D0"/>
<path d="M1561.44 514.212C1561.2 514.334 1561.05 514.468 1560.99 514.613C1559.54 514.2 1558.25 514.111 1557.13 514.346C1548.59 516.109 1543.3 516.644 1538.04 520.534C1537.8 520.38 1537.64 520.181 1537.55 519.938C1543.32 515.4 1548.31 510.055 1552.51 503.903C1552.7 503.628 1552.9 503.62 1553.11 503.879L1561.44 514.212Z" fill="#FFE7D0"/>
<path d="M1561.44 514.212L1577.84 526.442C1577.86 526.457 1577.87 526.476 1577.88 526.497C1577.89 526.519 1577.89 526.542 1577.89 526.564C1577.89 526.586 1577.88 526.607 1577.87 526.623C1577.85 526.64 1577.84 526.653 1577.82 526.66C1577.69 526.701 1577.57 526.741 1577.45 526.782C1577.39 526.806 1577.32 526.798 1577.26 526.758C1571.51 523.2 1566.09 519.152 1560.99 514.613C1561.05 514.467 1561.2 514.333 1561.44 514.212Z" fill="#EBE5DB"/>
<path d="M1452.49 515.61L1456.55 518.916C1456.56 518.927 1456.57 518.941 1456.58 518.956C1456.58 518.97 1456.58 518.986 1456.58 519.002C1456.58 519.017 1456.57 519.032 1456.56 519.045C1456.56 519.057 1456.54 519.068 1456.53 519.075C1456.42 519.107 1456.32 519.139 1456.21 519.172C1456.15 519.196 1456.09 519.188 1456.03 519.147L1452.26 516.157C1452.59 516.084 1452.67 515.902 1452.49 515.61Z" fill="#EBE5DB"/>
<path d="M1638.64 526.953L1638.47 526.333L1648.62 519.829C1648.91 519.642 1649.05 519.724 1649.04 520.072L1648.85 530.758C1648.84 531.131 1648.66 531.374 1648.3 531.487C1642.76 533.201 1642.49 529.019 1638.64 526.953Z" fill="#FFE7D0"/>
<path d="M1537.55 519.938C1537.64 520.181 1537.8 520.379 1538.04 520.533C1531.27 525.493 1526.28 528.565 1523.05 529.748C1503.17 537.042 1482.25 535.729 1464.08 525.055C1464.31 524.942 1464.45 524.772 1464.52 524.545C1487.41 538.233 1516.64 536.313 1537.55 519.938Z" fill="#E2E1C6"/>
<path d="M1464.52 524.545C1464.45 524.772 1464.31 524.942 1464.08 525.056C1462.14 523.864 1460.27 522.576 1458.46 521.19C1458.36 521.117 1458.34 521.012 1458.39 520.874C1458.44 520.72 1458.53 520.687 1458.66 520.777L1464.52 524.545Z" fill="#EBE5DB"/>
<path d="M1365.34 530.83L1362.96 531.122C1360.43 531.94 1357.97 532.09 1355.59 531.572C1355.15 531.474 1354.89 531.644 1354.8 532.082C1354.6 533.201 1354.49 534.57 1354.46 536.191C1354.18 556.578 1353.89 570.85 1355.91 583.286L1355.31 583.298C1354.87 580.162 1353.79 577.439 1353.79 574.327C1353.82 558.9 1352.61 542.014 1354.24 526.782C1354.28 526.401 1354.48 526.283 1354.83 526.429L1365.34 530.83Z" fill="#E2E1C6"/>
<path d="M1638.47 526.333L1638.64 526.952C1635.23 528.606 1631.33 530.49 1627.72 531.329C1627.63 531.356 1627.54 531.348 1627.46 531.306C1627.38 531.264 1627.32 531.191 1627.29 531.104C1627.26 531.017 1627.27 530.923 1627.31 530.842C1627.35 530.761 1627.43 530.7 1627.51 530.672L1638.47 526.333Z" fill="#E2E1C6"/>
<path d="M1415.2 526.722C1415.36 526.738 1415.49 526.888 1415.59 527.171L1411.05 529.165C1410.99 529.193 1410.92 529.195 1410.86 529.172C1410.8 529.15 1410.75 529.103 1410.72 529.044C1410.7 528.984 1410.69 528.916 1410.72 528.854C1410.74 528.793 1410.78 528.743 1410.84 528.715L1415.2 526.722Z" fill="#E2E1C6"/>
<path d="M1580.18 528.322C1581.06 528.835 1581.86 529.1 1581.96 528.915C1582.07 528.73 1581.45 528.164 1580.58 527.651C1579.7 527.138 1578.91 526.872 1578.8 527.057C1578.69 527.243 1579.31 527.809 1580.18 528.322Z" fill="#EBE5DB"/>
<path d="M1377.04 534.392L1377.83 533.602C1388.33 534.428 1398.61 533.302 1408.67 530.222C1409.07 530.101 1409.47 530.097 1409.87 530.21C1410.9 530.51 1412.17 530.648 1413.68 530.623C1424.75 530.429 1439.23 530.482 1457.14 530.781C1492.09 531.365 1466.84 587.237 1457.68 599.929C1446.49 615.416 1425.6 620.182 1407.03 618.346C1372.49 614.93 1365.79 586.739 1366.35 557.149C1366.53 547.521 1370.09 539.935 1377.04 534.392ZM1405.01 563.13C1400.95 586.654 1438.44 590.75 1437.16 563.459C1437.16 563.305 1437.18 563.152 1437.24 563.008C1437.29 562.865 1437.37 562.734 1437.48 562.623C1437.59 562.513 1437.72 562.425 1437.86 562.366C1438 562.307 1438.15 562.278 1438.31 562.279L1452.21 562.437C1452.66 562.446 1452.88 562.227 1452.88 561.781V550.342C1452.88 549.839 1452.63 549.588 1452.13 549.588L1388.94 549.491C1388.61 549.491 1388.45 549.657 1388.45 549.989V562.061C1388.45 562.49 1388.67 562.701 1389.1 562.693L1404.24 562.243C1404.36 562.239 1404.47 562.261 1404.57 562.306C1404.67 562.351 1404.76 562.419 1404.84 562.504C1404.91 562.589 1404.96 562.689 1404.99 562.798C1405.02 562.906 1405.03 563.02 1405.01 563.13Z" fill="#FFE7D0"/>
<path d="M1593.57 618.638C1574.22 619.1 1556.29 613.909 1545.44 596.561C1535.51 580.672 1513.79 531.316 1550.6 530.587C1562.28 530.356 1577.51 528.897 1588.78 531.353C1600.43 533.894 1611.45 534.817 1623.36 532.289C1623.7 532.224 1624.02 532.269 1624.34 532.423C1632.36 536.507 1637 542.521 1638.28 550.463C1640.07 561.607 1639.16 573.857 1635.54 587.213C1629.62 609.01 1615.27 618.139 1593.57 618.638ZM1566.73 562.851C1563.63 588.599 1601.14 589.158 1599.35 562.936C1599.34 562.855 1599.35 562.774 1599.38 562.698C1599.41 562.623 1599.45 562.553 1599.51 562.495C1599.56 562.437 1599.63 562.391 1599.71 562.36C1599.78 562.329 1599.86 562.314 1599.94 562.316L1614.53 562.729C1614.98 562.737 1615.21 562.514 1615.22 562.061L1615.56 550.232C1615.57 550.145 1615.55 550.059 1615.52 549.978C1615.49 549.897 1615.44 549.823 1615.38 549.761C1615.32 549.698 1615.25 549.649 1615.17 549.615C1615.09 549.581 1615.01 549.563 1614.92 549.564H1551.35C1550.95 549.564 1550.74 549.766 1550.74 550.171V562.024C1550.74 562.429 1550.95 562.624 1551.35 562.608L1566.16 562.231C1566.59 562.223 1566.78 562.429 1566.73 562.851Z" fill="#FFE7D0"/>
<path d="M1365.34 530.83L1377.83 533.602L1377.04 534.392L1362.96 531.122L1365.34 530.83Z" fill="#EBE5DB"/>
<path d="M1517.76 538.051C1517.85 538.051 1517.93 538.086 1517.99 538.147C1518.06 538.209 1518.09 538.292 1518.09 538.379L1518.13 548.36C1518.13 549.93 1518.09 551.485 1518 552.935C1517.91 554.385 1517.78 555.702 1517.61 556.811C1517.44 557.92 1517.24 558.799 1517.02 559.397C1516.8 559.995 1516.56 560.302 1516.32 560.298L1489.11 560.395C1488.62 560.388 1488.15 559.127 1487.79 556.889C1487.44 554.651 1487.24 551.619 1487.22 548.457L1487.19 538.477C1487.19 538.39 1487.22 538.306 1487.28 538.245C1487.35 538.183 1487.43 538.149 1487.52 538.149L1517.76 538.051Z" fill="#FFE7D0"/>
<path d="M1405.01 563.131C1405.03 563.02 1405.02 562.907 1404.99 562.798C1404.96 562.69 1404.91 562.59 1404.84 562.504C1404.76 562.419 1404.67 562.352 1404.57 562.307C1404.47 562.262 1404.36 562.24 1404.24 562.244L1389.1 562.693C1388.67 562.701 1388.45 562.491 1388.45 562.061V549.99C1388.45 549.657 1388.61 549.491 1388.94 549.491L1452.13 549.588C1452.63 549.588 1452.88 549.84 1452.88 550.342V561.782C1452.88 562.227 1452.66 562.446 1452.21 562.438L1438.31 562.28C1438.15 562.278 1438 562.308 1437.86 562.367C1437.72 562.426 1437.59 562.513 1437.48 562.624C1437.37 562.734 1437.29 562.865 1437.24 563.009C1437.18 563.152 1437.16 563.306 1437.16 563.459C1438.44 590.751 1400.95 586.654 1405.01 563.131Z" fill="black"/>
<path d="M1566.16 562.231L1551.35 562.608C1550.95 562.624 1550.74 562.43 1550.74 562.025V550.172C1550.74 549.767 1550.95 549.564 1551.35 549.564H1614.92C1615.01 549.564 1615.09 549.581 1615.17 549.615C1615.25 549.649 1615.32 549.699 1615.38 549.761C1615.44 549.824 1615.49 549.898 1615.52 549.979C1615.55 550.06 1615.57 550.146 1615.56 550.233L1615.22 562.061C1615.21 562.515 1614.98 562.738 1614.53 562.73L1599.94 562.316C1599.86 562.314 1599.78 562.329 1599.71 562.36C1599.63 562.391 1599.56 562.437 1599.51 562.495C1599.45 562.554 1599.41 562.623 1599.38 562.699C1599.35 562.775 1599.34 562.856 1599.35 562.936C1601.14 589.158 1563.63 588.599 1566.73 562.851C1566.78 562.43 1566.59 562.223 1566.16 562.231Z" fill="black"/>
<path d="M1647.78 589.22C1647.66 589.398 1647.83 589.447 1648.29 589.366C1648.3 610.534 1648.32 631.707 1648.35 652.884C1648.5 736.996 1570.51 803.044 1487.87 794.631C1414.16 787.143 1355.14 725.569 1355.3 650.258C1355.34 627.923 1355.34 605.603 1355.31 583.299L1355.91 583.287C1360.04 610.299 1375.83 627.1 1403.12 630.54C1412.22 631.683 1420.91 631.525 1429.21 630.066C1462.39 624.243 1477.13 599.905 1484.83 569.514C1484.89 569.265 1485.05 569.049 1485.26 568.909C1485.48 568.769 1485.73 568.716 1485.98 568.76C1497.18 570.592 1508.38 570.583 1519.56 568.736C1520.06 568.655 1520.36 568.857 1520.49 569.343C1527.68 598.556 1542.49 623.769 1574.04 629.641C1607.24 635.828 1640.08 626.091 1647.78 589.22ZM1502.64 619.927C1499.58 625.459 1506.36 628.303 1510.35 629.276C1518.59 631.258 1520.39 640.46 1514.27 645.529C1510.78 648.423 1506.1 646.32 1503.15 650.72C1501 653.954 1503.13 659.656 1507.28 659.899C1535.41 661.479 1539.3 620.341 1510.91 616.122C1507.11 615.563 1504.36 616.832 1502.64 619.927ZM1477.99 743.828C1478.39 776.724 1524.18 777.016 1524.56 745.579C1524.67 736.06 1526.16 721.424 1523.49 712.549C1519.62 699.736 1505.08 692.6 1492.76 697.937C1474.37 705.887 1477.77 725.423 1477.99 743.828Z" fill="#FFE7D0"/>
<path d="M1333.19 587.31C1333.35 587.164 1333.51 587.014 1333.67 586.86C1340.4 586.034 1348.5 585.219 1352.82 579.275C1352.83 579.252 1352.86 579.234 1352.88 579.223C1352.91 579.213 1352.93 579.21 1352.96 579.215C1352.99 579.22 1353.02 579.233 1353.04 579.252C1353.06 579.271 1353.08 579.296 1353.09 579.323C1353.12 579.429 1353.16 579.538 1353.2 579.651C1353.22 579.708 1353.21 579.765 1353.17 579.822C1349.38 585.693 1339.89 587.018 1333.19 587.31Z" fill="black"/>
<path d="M1706.05 579.396V579.846L1699.76 582.813L1699.33 582.205L1706.05 579.396Z" fill="black"/>
<path d="M1657.11 585.377C1656.74 585.321 1656.53 585.479 1656.48 585.851C1654.48 585.017 1652.8 583.615 1651.45 581.645C1651.32 581.459 1651.29 581.281 1651.36 581.11C1651.49 580.811 1651.65 580.798 1651.83 581.074C1653.16 583.035 1654.93 584.47 1657.11 585.377Z" fill="black"/>
<path d="M1298.5 582.107C1299.24 581.97 1299.88 582.014 1300.42 582.241C1307.27 585.126 1314.45 586.715 1321.94 587.007L1320.34 587.651C1312.96 587.205 1305.69 585.422 1298.52 582.302C1298.9 582.561 1298.89 582.496 1298.5 582.107Z" fill="black"/>
<path d="M1699.33 582.205L1699.76 582.813L1686.08 586.995C1685.19 587.27 1684.74 587.87 1684.73 588.794C1684.51 604.047 1684.4 619.299 1684.42 634.552C1684.44 644.192 1681.37 650.927 1671.16 652.203C1670.72 652.26 1670.5 652.07 1670.5 651.632C1670.47 631.379 1670.47 611.138 1670.5 590.909C1670.5 590.034 1670.31 589.013 1669.94 587.846C1670.09 587.805 1670.29 587.639 1670.54 587.347C1680.42 587.923 1690.02 586.209 1699.33 582.205Z" fill="#FFE7D0"/>
<path d="M1657.11 585.377L1670.54 587.347C1670.29 587.639 1670.09 587.805 1669.94 587.845L1656.48 585.852C1656.53 585.479 1656.74 585.321 1657.11 585.377Z" fill="black"/>
<path d="M1648.29 589.365C1647.83 589.446 1647.66 589.397 1647.78 589.219C1647.48 588.092 1647.53 587.209 1647.92 586.569C1648.17 586.172 1648.36 586.196 1648.5 586.642C1648.72 587.387 1648.65 588.295 1648.29 589.365Z" fill="#404441"/>
<path d="M1333.67 586.861C1333.51 587.015 1333.35 587.165 1333.19 587.311L1333.15 651C1333.15 651.12 1333.12 651.238 1333.07 651.347C1333.02 651.457 1332.95 651.554 1332.86 651.632C1332.77 651.71 1332.66 651.768 1332.55 651.802C1332.43 651.835 1332.31 651.844 1332.19 651.826C1323.43 650.513 1320.69 644.629 1320.69 636.156C1320.67 620.361 1320.67 604.565 1320.68 588.769C1320.68 588.559 1320.56 588.186 1320.34 587.651L1321.94 587.007L1333.67 586.861Z" fill="#FFE7D0"/>
<path d="M1510.35 629.275C1506.36 628.303 1499.58 625.458 1502.64 619.927C1504.36 616.831 1507.11 615.562 1510.91 616.121C1539.3 620.34 1535.41 661.478 1507.28 659.898C1503.13 659.655 1501 653.953 1503.15 650.719C1506.1 646.319 1510.78 648.422 1514.27 645.529C1520.39 640.459 1518.59 631.257 1510.35 629.275Z" fill="black"/>
<path d="M1524.56 745.578C1524.18 777.015 1478.39 776.724 1477.99 743.828C1477.77 725.422 1474.37 705.887 1492.76 697.936C1505.08 692.599 1519.62 699.735 1523.49 712.549C1526.16 721.423 1524.67 736.06 1524.56 745.578ZM1488.99 722.772L1513.74 722.821C1514.13 722.821 1514.5 722.667 1514.77 722.394C1515.04 722.12 1515.2 721.749 1515.2 721.362V720.304C1515.2 718.406 1514.85 716.526 1514.17 714.771C1513.49 713.016 1512.49 711.421 1511.23 710.076C1509.97 708.732 1508.47 707.664 1506.82 706.935C1505.17 706.206 1503.4 705.829 1501.62 705.826H1501.16C1497.55 705.82 1494.09 707.337 1491.53 710.043C1488.97 712.749 1487.54 716.423 1487.53 720.256V721.313C1487.53 721.7 1487.68 722.071 1487.96 722.345C1488.23 722.619 1488.6 722.772 1488.99 722.772Z" fill="black"/>
<path d="M1488.99 722.773C1488.6 722.773 1488.23 722.619 1487.96 722.345C1487.68 722.072 1487.53 721.701 1487.53 721.314V720.256C1487.54 716.423 1488.97 712.749 1491.53 710.043C1494.09 707.337 1497.55 705.82 1501.16 705.826H1501.62C1503.4 705.829 1505.17 706.206 1506.82 706.935C1508.47 707.665 1509.97 708.732 1511.23 710.076C1512.49 711.421 1513.49 713.016 1514.17 714.771C1514.85 716.526 1515.2 718.407 1515.2 720.305V721.362C1515.2 721.749 1515.04 722.12 1514.77 722.394C1514.5 722.668 1514.13 722.821 1513.74 722.821L1488.99 722.773Z" fill="#F6F5F3"/>
<path d="M1450.46 809.024C1450.06 809.089 1449.85 809.19 1449.84 809.328C1443.79 807.569 1437.93 805.268 1432.28 802.423C1431.84 802.204 1431.85 802.038 1432.32 801.925C1432.86 801.795 1433.31 801.981 1433.66 802.484C1439.17 804.907 1444.77 807.087 1450.46 809.024Z" fill="#EBE5DB"/>
<path d="M1572.95 801.852L1572.9 802.35L1558.99 807.906C1558.94 807.744 1558.82 807.598 1558.6 807.468L1572.95 801.852Z" fill="#E2E1C6"/>
<path d="M1558.6 807.468C1558.82 807.598 1558.94 807.744 1558.99 807.906L1552.94 810.52C1552.51 810.706 1552.3 811.03 1552.3 811.492L1551.86 841.993C1551.85 842.317 1551.72 842.577 1551.46 842.771L1501.95 879.412C1501.65 879.63 1501.36 879.63 1501.06 879.412L1452.23 843.489C1451.85 843.213 1451.67 842.82 1451.67 842.309V811.212C1451.67 810.848 1451.52 810.556 1451.23 810.337L1449.84 809.328C1449.85 809.19 1450.06 809.089 1450.46 809.024C1451.71 809.547 1452.87 810.252 1454.15 810.605C1487.95 819.941 1525.54 819.917 1558.6 807.468Z" fill="#FFE7D0"/>
<path d="M1564.81 852.351C1564.91 852.221 1565.02 852.112 1565.14 852.023C1565.47 851.747 1565.75 851.792 1565.99 852.156L1578.97 872.446C1579.1 872.642 1579.15 872.878 1579.11 873.109C1579.08 873.34 1578.96 873.55 1578.78 873.698L1532.86 911.821C1532.62 912.017 1532.32 912.112 1532.01 912.087C1531.7 912.063 1531.41 911.919 1531.21 911.688L1513.9 891.86C1513.31 891.196 1513.38 890.6 1514.09 890.073C1530.84 877.884 1547.52 865.594 1564.12 853.202C1564.15 853.177 1564.23 853.08 1564.36 852.926C1564.48 852.773 1564.64 852.571 1564.81 852.351Z" fill="#EBE5DB"/>
<path d="M1423.47 872.822L1436.97 852.472C1437 852.424 1437.04 852.382 1437.09 852.35C1437.14 852.318 1437.19 852.297 1437.25 852.287C1437.31 852.276 1437.36 852.278 1437.42 852.291C1437.48 852.304 1437.53 852.328 1437.58 852.362L1489.39 890.644C1489.43 890.679 1489.47 890.724 1489.5 890.775C1489.53 890.826 1489.55 890.882 1489.55 890.941C1489.56 890.999 1489.55 891.058 1489.54 891.113C1489.52 891.169 1489.49 891.22 1489.45 891.264L1471.25 912.271C1471.18 912.352 1471.08 912.402 1470.97 912.411C1470.86 912.42 1470.75 912.387 1470.67 912.319L1423.56 873.381C1423.48 873.315 1423.43 873.221 1423.41 873.118C1423.4 873.015 1423.42 872.91 1423.47 872.822Z" fill="#EBE5DB"/>
<path d="M1525 928.792C1529.06 933.436 1533.58 931.904 1537.64 928.5C1550.9 917.373 1569.22 902.242 1592.61 883.107C1592.89 882.864 1593.22 882.791 1593.58 882.888L1611.53 887.715C1611.62 887.738 1611.7 887.785 1611.77 887.85C1611.84 887.916 1611.89 887.998 1611.92 888.089C1611.94 888.179 1611.95 888.275 1611.92 888.367C1611.9 888.459 1611.86 888.545 1611.79 888.614L1566.56 938.858C1566.3 939.152 1565.97 939.388 1565.61 939.549C1565.24 939.71 1564.85 939.794 1564.44 939.794H1437.86C1437.18 939.794 1436.5 939.65 1435.88 939.371C1435.26 939.093 1434.7 938.686 1434.25 938.177L1390.85 889.757C1390.04 888.865 1390.22 888.274 1391.38 887.982L1409.14 883.411C1409.49 883.321 1409.85 883.315 1410.2 883.393C1410.55 883.471 1410.88 883.631 1411.16 883.861C1428.27 897.882 1444.72 911.457 1460.5 924.586C1463.93 927.439 1467.46 929.902 1471.09 931.977C1471.47 932.196 1471.9 932.303 1472.34 932.286C1472.78 932.268 1473.21 932.128 1473.57 931.88C1475.83 930.356 1477.98 928.472 1480.04 926.227C1487.24 918.374 1494.2 910.322 1500.93 902.072C1501.15 901.788 1501.38 901.78 1501.62 902.047C1509.37 910.922 1517.17 919.837 1525 928.792Z" fill="#EBE5DB"/>
<path d="M1619.27 941.228C1610.82 938.773 1600.91 939.782 1592.08 939.794C1591.48 939.794 1591.39 939.575 1591.78 939.138L1639.6 886.365C1639.97 885.96 1640.4 885.887 1640.9 886.146L1671.35 902.181C1671.83 902.432 1671.89 902.765 1671.53 903.178L1634.64 946.164C1634.32 946.537 1633.94 946.626 1633.49 946.432C1628.86 944.365 1624.12 942.63 1619.27 941.228Z" fill="#6D4333"/>
<path d="M1409.99 939.125C1410.56 939.571 1410.48 939.794 1409.76 939.794C1396.89 939.806 1372.82 937.338 1361.77 944.863C1361.52 945.033 1361.29 945.009 1361.09 944.79L1325.08 906.63C1325.01 906.553 1324.95 906.459 1324.92 906.357C1324.89 906.255 1324.89 906.147 1324.91 906.042C1324.93 905.937 1324.97 905.838 1325.04 905.752C1325.1 905.666 1325.19 905.596 1325.29 905.548L1362.05 887.374C1362.45 887.171 1362.81 887.236 1363.12 887.568C1377.93 903.915 1392.67 920.294 1407.34 936.706C1408.01 937.451 1408.89 938.258 1409.99 939.125Z" fill="#6D4333"/>
<path d="M1722.8 999.422C1721.78 999.349 1721.03 999.377 1720.55 999.507C1720.27 999.579 1720.02 999.641 1719.82 999.684C1719.62 999.727 1719.48 999.75 1719.42 999.75L1660.26 999.702C1659.62 995.431 1659.25 991.18 1659.13 986.949C1659.1 985.571 1658.81 983.712 1658.27 981.369C1657.66 978.768 1658.12 976.434 1657.08 973.881C1654.97 968.726 1652.22 963.953 1648.84 959.56C1648.53 959.155 1648.54 958.762 1648.87 958.381L1679.2 923.844C1679.45 923.576 1679.7 923.56 1679.97 923.795C1685.07 928.309 1689.89 933.055 1694.41 938.031C1710.23 955.455 1719.69 975.919 1722.8 999.422Z" fill="#EBE5DB"/>
<path d="M1327.63 999.617L1281.29 999.945C1281.09 994.677 1281.85 989.211 1283.58 983.546C1290.09 962.191 1301.81 943.883 1318.73 928.622C1319.15 928.241 1319.56 928.261 1319.94 928.683L1344.7 955.634C1345.02 955.983 1345.02 956.327 1344.7 956.667C1333.97 968.411 1331.33 982.938 1328.35 997.915C1328.28 998.263 1328.04 998.831 1327.63 999.617Z" fill="#EBE5DB"/>
<path d="M1631.44 966.125C1625.77 966.02 1620.4 966.052 1615.32 966.223C1607.73 966.466 1602.36 966.579 1599.21 966.563C1545.31 966.296 1489.56 965.651 1437.48 966.903C1427.22 967.146 1415.16 966.417 1405.46 967.159C1399.37 967.621 1393.93 970.178 1389.14 974.83C1388.87 975.092 1388.52 975.281 1388.14 975.377C1380.01 977.31 1374.71 982.731 1373.1 990.901C1372.42 994.329 1371.18 996.347 1373.61 999.824L1345.89 999.568C1350.43 981.455 1351.45 966.709 1370.82 959.646C1374.9 958.163 1381.09 957.34 1389.39 957.178C1402.25 956.923 1417.29 957.312 1427.97 957.275C1523.44 956.984 1584.11 956.935 1610.01 957.129C1616.78 957.186 1623.93 960.185 1631.44 966.125Z" fill="#404441"/>
<path d="M1631.44 966.125C1635.01 969.481 1637.87 973.983 1640.02 979.632C1642.42 985.904 1642.13 992.846 1642.25 999.714L1373.61 999.824C1371.18 996.347 1372.42 994.329 1373.1 990.901C1374.71 982.731 1380.01 977.31 1388.14 975.377C1388.52 975.281 1388.87 975.093 1389.14 974.83C1393.93 970.178 1399.37 967.621 1405.46 967.159C1415.16 966.417 1427.22 967.147 1437.48 966.903C1489.56 965.651 1545.31 966.296 1599.21 966.563C1602.36 966.579 1607.73 966.466 1615.32 966.223C1620.4 966.052 1625.77 966.02 1631.44 966.125Z" fill="#333333"/>
<line x1="1432.72" y1="801.052" x2="1449.74" y2="808.346" stroke="black"/>
<path d="M1432.01 802.077C1432.05 802.247 1432.29 802.371 1432.43 802.451C1432.71 802.619 1433.02 802.731 1433.31 802.893C1433.53 803.022 1433.75 803.173 1433.99 803.267C1434.27 803.371 1434.56 803.436 1434.83 803.539C1435.43 803.762 1436.01 804.029 1436.61 804.251C1437.12 804.437 1437.62 804.604 1438.12 804.807C1438.82 805.094 1439.49 805.434 1440.19 805.725C1441.89 806.432 1443.66 806.919 1445.4 807.485C1446.15 807.728 1446.88 808 1447.63 808.238C1447.95 808.339 1448.26 808.565 1448.6 808.565" stroke="black" stroke-width="3" stroke-linecap="round"/>
<path d="M1450.65 809.642C1450.66 809.784 1450.71 809.919 1450.73 810.058C1450.73 810.064 1450.73 810.101 1450.74 810.102C1450.76 810.103 1450.78 810.065 1450.79 810.054C1450.82 809.999 1450.85 809.937 1450.87 809.876C1450.88 809.846 1450.88 809.818 1450.86 809.79C1450.82 809.691 1450.71 809.611 1450.63 809.549C1450.54 809.488 1450.45 809.454 1450.35 809.42C1450.34 809.415 1450.24 809.396 1450.24 809.372C1450.23 809.361 1450.24 809.347 1450.24 809.336C1450.24 809.333 1450.24 809.287 1450.24 809.287C1450.26 809.296 1450.28 809.369 1450.29 809.381C1450.35 809.492 1450.42 809.593 1450.5 809.691C1450.56 809.769 1450.63 809.844 1450.68 809.928C1450.73 810.003 1450.75 810.078 1450.77 810.166C1450.77 810.206 1450.77 810.239 1450.79 810.276C1450.79 810.292 1450.81 810.306 1450.81 810.318C1450.82 810.347 1450.83 810.376 1450.83 810.406C1450.85 810.468 1450.83 810.533 1450.85 810.594C1450.87 810.643 1450.86 810.693 1450.86 810.744C1450.86 810.749 1450.87 810.794 1450.87 810.79C1450.89 810.767 1450.9 810.73 1450.91 810.702" stroke="black" stroke-linecap="round"/>
<path d="M1572.53 801.666C1572.53 801.912 1572.57 802.148 1572.57 802.394C1572.57 802.475 1572.55 802.558 1572.6 802.618C1572.64 802.664 1572.76 802.751 1572.78 802.804C1572.86 803.016 1572.93 803.269 1573 802.804C1573.05 802.449 1573.04 802.094 1573.04 801.737C1573.04 801.389 1573.01 802.435 1573.04 802.782C1573.05 802.883 1573.22 803.38 1573.3 803.38C1573.54 803.38 1573.72 801.65 1573.55 801.323" stroke="black" stroke-linecap="round"/>
<path d="M1571.92 802.409C1571.81 802.552 1571.65 802.67 1571.5 802.778C1571.31 802.924 1571.11 803.077 1570.89 803.186C1570.75 803.259 1571.19 803.06 1571.34 802.993C1571.44 802.949 1571.54 802.905 1571.62 802.84C1571.64 802.826 1571.68 802.789 1571.64 802.79C1571.38 802.797 1571.12 802.917 1570.88 802.996C1570.68 803.061 1570.48 803.123 1570.28 803.192C1570.12 803.247 1569.96 803.311 1569.79 803.346C1569.71 803.364 1569.63 803.365 1569.54 803.396" stroke="black" stroke-linecap="round"/>
<path d="M1569.14 803.546C1568.81 803.636 1568.49 803.737 1568.16 803.828C1567.96 803.883 1567.77 803.955 1567.57 804.024C1567.4 804.087 1567.22 804.107 1567.04 804.16C1566.44 804.34 1565.85 804.58 1565.3 804.892C1564.84 805.157 1564.39 805.451 1563.93 805.725C1563.43 806.029 1562.83 806.19 1562.28 806.408C1561.7 806.639 1561.09 806.771 1560.5 806.973C1559.87 807.189 1559.25 807.431 1558.63 807.676C1558.29 807.81 1557.93 807.896 1557.58 808.021C1556.87 808.281 1556.18 808.599 1555.47 808.84C1555.15 808.945 1554.85 809.073 1554.55 809.204C1554.39 809.274 1554.25 809.388 1554.09 809.461C1553.8 809.596 1553.51 809.723 1553.22 809.865C1553.13 809.907 1552.9 809.984 1552.85 810.071" stroke="black" stroke-linecap="round"/>
<path d="M1553.02 811.669C1553.15 811.249 1553.44 810.889 1553.44 810.443C1553.44 810.329 1553.44 810.215 1553.44 810.101C1553.44 810.064 1553.44 810.028 1553.44 809.991C1553.44 809.971 1553.46 809.922 1553.44 809.929C1553.41 809.939 1553.41 809.987 1553.39 810.014C1553.34 810.107 1553.27 810.199 1553.2 810.286C1553.13 810.377 1553.04 810.511 1552.93 810.56C1552.89 810.577 1552.85 810.674 1552.85 810.718C1552.85 810.757 1552.87 810.983 1552.88 810.885C1552.9 810.552 1553.04 810.259 1553.04 809.921C1553.04 809.766 1553.05 809.649 1552.98 809.512C1552.96 809.469 1552.94 809.432 1552.92 809.392" stroke="black" stroke-linecap="round"/>
<path d="M1553.44 811.269V811.246" stroke="black" stroke-linecap="round"/>
<path d="M1685.55 586.936C1685.55 587.073 1685.61 587.168 1685.62 587.304C1685.62 587.392 1685.64 587.48 1685.67 587.561C1685.69 587.606 1685.69 587.362 1685.69 587.348C1685.69 587.092 1685.72 586.803 1685.57 586.579C1685.51 586.495 1685.47 586.418 1685.42 586.331C1685.36 586.232 1685.37 586.43 1685.37 586.466C1685.34 586.678 1685.31 586.888 1685.29 587.101C1685.29 587.193 1685.29 587.285 1685.29 587.377C1685.29 587.54 1685.24 587.706 1685.24 587.875C1685.24 588.082 1685.28 588.287 1685.31 588.491C1685.35 588.803 1685.38 589.123 1685.45 589.432C1685.46 589.455 1685.49 589.637 1685.53 589.601C1685.57 589.571 1685.63 589.46 1685.64 589.438C1685.75 589.241 1685.86 589.041 1685.96 588.838C1686.23 588.278 1686.49 587.718 1686.49 587.088C1686.49 587 1686.5 586.9 1686.47 586.819C1686.4 586.666 1686.95 586.554 1687.03 586.539C1687.71 586.408 1688.43 586.462 1689.13 586.396C1689.94 586.32 1690.74 586.144 1691.52 585.915C1691.96 585.785 1692.4 585.648 1692.85 585.518C1693.25 585.401 1693.67 585.308 1694.05 585.133C1694.22 585.053 1694.36 584.942 1694.54 584.868C1695.04 584.661 1695.54 584.457 1696.05 584.277C1696.66 584.058 1697.29 583.867 1697.89 583.582C1698.13 583.466 1698.37 583.335 1698.61 583.217C1698.81 583.119 1699.01 583.036 1699.23 582.959C1699.3 582.934 1699.4 582.909 1699.46 582.851C1699.49 582.81 1699.8 582.676 1699.79 582.655C1699.79 582.633 1699.75 582.653 1699.73 582.655C1699.57 582.67 1699.41 582.683 1699.24 582.698C1698.85 582.735 1698.44 582.772 1698.06 582.919C1697.56 583.113 1697.11 583.367 1696.59 583.528C1696.17 583.659 1695.74 583.77 1695.32 583.886C1694.7 584.056 1694.09 584.284 1693.49 584.532C1693 584.739 1692.52 584.99 1692 585.163C1691.54 585.318 1691.06 585.428 1690.59 585.55C1690.1 585.677 1689.6 585.783 1689.11 585.901C1688.86 585.961 1688.6 585.997 1688.34 585.997C1688.25 585.997 1688.15 585.981 1688.1 586.068" stroke="black" stroke-linecap="round"/>
<path d="M1687.91 998.234H1687.84L1688.1 997.507H1688.17L1688.44 998.234H1688.37L1688.14 997.593H1688.14L1687.91 998.234ZM1687.96 997.956H1688.32V998.015H1687.96V997.956ZM1688.56 998.234V997.507H1688.63V998.175H1688.98V998.234H1688.56ZM1689.6 997.734C1689.59 997.71 1689.58 997.688 1689.57 997.667C1689.56 997.645 1689.54 997.627 1689.52 997.611C1689.5 997.595 1689.48 997.582 1689.46 997.573C1689.43 997.564 1689.41 997.56 1689.38 997.56C1689.33 997.56 1689.29 997.572 1689.25 997.597C1689.21 997.621 1689.18 997.657 1689.16 997.703C1689.14 997.75 1689.13 997.805 1689.13 997.871C1689.13 997.936 1689.14 997.992 1689.16 998.038C1689.18 998.084 1689.21 998.12 1689.25 998.145C1689.29 998.17 1689.33 998.182 1689.38 998.182C1689.43 998.182 1689.47 998.172 1689.5 998.152C1689.53 998.132 1689.56 998.104 1689.58 998.067C1689.6 998.03 1689.61 997.986 1689.61 997.935L1689.63 997.942H1689.4V997.882H1689.67V997.942C1689.67 998.004 1689.66 998.057 1689.64 998.103C1689.61 998.148 1689.58 998.183 1689.53 998.207C1689.49 998.232 1689.44 998.244 1689.38 998.244C1689.32 998.244 1689.26 998.229 1689.21 998.199C1689.17 998.168 1689.13 998.124 1689.1 998.069C1689.08 998.012 1689.06 997.946 1689.06 997.871C1689.06 997.814 1689.07 997.762 1689.09 997.716C1689.1 997.67 1689.12 997.631 1689.15 997.598C1689.18 997.566 1689.21 997.541 1689.25 997.523C1689.29 997.506 1689.33 997.497 1689.38 997.497C1689.42 997.497 1689.45 997.503 1689.49 997.516C1689.52 997.529 1689.55 997.546 1689.57 997.568C1689.6 997.59 1689.62 997.615 1689.64 997.643C1689.65 997.672 1689.66 997.702 1689.67 997.734H1689.6ZM1689.84 998.234V997.507H1690.26V997.567H1689.9V997.841H1690.24V997.9H1689.9V998.175H1690.27V998.234H1689.84ZM1690.43 998.234V997.507H1690.67C1690.72 997.507 1690.76 997.516 1690.8 997.535C1690.83 997.554 1690.86 997.579 1690.87 997.612C1690.89 997.645 1690.9 997.682 1690.9 997.725C1690.9 997.767 1690.89 997.805 1690.87 997.837C1690.86 997.869 1690.83 997.895 1690.8 997.913C1690.76 997.931 1690.72 997.94 1690.67 997.94H1690.47V997.88H1690.67C1690.7 997.88 1690.74 997.873 1690.76 997.861C1690.79 997.848 1690.8 997.83 1690.82 997.807C1690.83 997.784 1690.84 997.757 1690.84 997.725C1690.84 997.693 1690.83 997.665 1690.82 997.642C1690.8 997.618 1690.79 997.599 1690.76 997.586C1690.73 997.573 1690.7 997.567 1690.66 997.567H1690.5V998.234H1690.43ZM1690.75 997.906L1690.93 998.234H1690.85L1690.68 997.906H1690.75Z" fill="#A8A8A8"/>
</svg>
